<svg height="32" viewBox="0 0 54 32" width="54" xmlns="http://www.w3.org/2000/svg"><g fill="#d73f3f" fill-rule="evenodd"><path d="m24.6843733 13.8499733c0-.3226666.0688-.6106666.2064-.8592.1365334-.2496.3178667-.4528.5429334-.6149333.224-.1616.4762666-.2842667.7568-.3669333.2794666-.0821334.5610666-.1237334.8453333-.1237334.2832 0 .5658667.0416.8464.1237334.2789333.0826666.5312.2053333.7552.3669333.2256.1621333.4064.3653333.544.6149333.1376.2485334.2058667.5365334.2058667.8592v4.248c0 .3296-.0682667.6186667-.2058667.8634667-.1376.2458667-.3184.448-.544.6101333-.224.1626667-.4762667.2858667-.7552.3674667-.2805333.0821333-.5632.1232-.8464.1232-.2842667 0-.5658667-.0410667-.8453333-.1232-.2805334-.0816-.5328-.2048-.7568-.3674667-.2250667-.1621333-.4064-.3642666-.5429334-.6101333-.1376-.2448-.2064-.5338667-.2064-.8634667zm1.3498667 4.2501334c0 .2768.1541333.4832.3429333.6144.1877334.1322666.4101334.2021333.6666667.2021333.2554667 0 .4789333-.0698667.6672-.2021333.1872-.1312.2944-.3376.2944-.6144v-4.248c0-.2778667-.1072-.4837334-.2944-.6149334-.1882667-.1317333-.4117333-.2202666-.6672-.2202666-.2565333 0-.4789333.0885333-.6666667.2202666-.1888.1312-.3429333.3370667-.3429333.6149334z"/><path d="m22.253 11.877v3.45h-2.152v-3.45h-1.176v8.19h1.176v-3.452h2.152v3.452h1.266v-8.19z"/><path d="m34.954 11.877h-4.67v1.204h1.726l-.02 6.986h1.241v-6.986h1.723z"/><path d="m43.6156267 19.1778667h9.504l-5.6826667-6.3989334-5.6576-6.3989333-5.6586667-6.37973333h-28.4277333l5.6576 6.37973333h-9.52533333l5.65866666 6.3989333.04373334.0432h-9.52746667l5.68106667 6.3989334 5.66080003 6.3989333 5.6581333 6.3802667h28.4277333l-5.6608-6.3802667-.0416-.0624h9.5269334zm-17.056 7.4549333c-6.3472 0-11.4922667-4.7605333-11.4922667-10.632 0-5.8736 5.1450667-10.63413333 11.4922667-10.63413333 6.3477333 0 11.4933333 4.76053333 11.4933333 10.63413333 0 5.8714667-5.1456 10.632-11.4933333 10.632z"/></g></svg>